<svg viewBox="0 0 48 48" xmlns="http://www.w3.org/2000/svg" xmlns:xlink="http://www.w3.org/1999/xlink" width="48" height="48">
<defs>



 <path fill="#29d9c2" id="i-2186" d="M44.01,15.359c0.03,0.561,0.11,1.881-0.439,2.94c-1.2,0.81-2.58,1.37-4.07,1.591l-0.5,0.17V20c0-5.98-5.69-10-11-10h-0.05 l0.06-0.189c0.021-1.23,0.26-2.41,0.7-3.49C30.2,5.34,32.13,5,32.16,4.99c2.52-0.42,5.479,0.56,7.93,2.63 c2.43,2.069,3.891,4.81,3.91,7.34C43.99,15.07,44,15.189,44.01,15.359z M28,12h-0.45L1.62,41.04L3.59,43l-3.3,3.29l1.42,1.42 L5,44.41l1.95,1.949L37,20.46V20C37,15.21,32.35,12,28,12z M38,0c-2.95,0-5.61,1.29-7.44,3.33c0.71-0.21,1.21-0.301,1.28-0.32 c3.09-0.51,6.65,0.641,9.54,3.09C44.27,8.55,46,11.88,46,15v0.1c0,0.03,0,0.08,0.01,0.141c0.01,0.18,0.021,0.42,0.03,0.699 C47.27,14.279,48,12.221,48,10C48,4.49,43.51,0,38,0z"/> 
</defs>

<use x="0" y="0" xlink:href="#i-2186"/>

</svg>