<svg viewBox="0 0 48 48" xmlns="http://www.w3.org/2000/svg" xmlns:xlink="http://www.w3.org/1999/xlink" width="48" height="48">
<defs>



 <path fill="#29d9c2" id="i-2162" d="M0,6v35h2v1h44v-1h2V6H0z M19,11h10v8H19V11z M15,11h2v2h-2V11z M15,14h2v2h-2V14z M11,11h2v2h-2V11z M11,14h2v2h-2V14z M11,17h2v2h-2V17z M3,11h2v2H3V11z M3,14h2v2H3V14z M3,17h2v2H3V17z M8,40H4V24h3v9h1V40z M9,19H7v-2h2V19z M9,16H7v-2h2V16z M9,13 H7v-2h2V13z M14,40h-4v-7h1v-9h2v9h1V40z M15,17h2v2h-2V17z M20,40h-4v-7h1v-9h3V40z M26,40h-4V24h3v9h1V40z M32,40h-4v-7h1v-9h2v9 h1V40z M38,40h-4v-7h1v-9h2v9h1V40z M44,40h-4v-7h1v-9h3V40z M45,19H31v-2h14V19z M45,16H31v-2h14V16z M45,13H31v-2h14V13z M21,13h6 v4h-6V13z"/> 
</defs>

<use x="0" y="0" xlink:href="#i-2162"/>

</svg>